Coordinates
version=1
nRows=6
nColumns=34
inDegrees=yes

Units are S.I. units (second, meters, Newtons, ...)
If the header above contains a line with 'inDegrees', this indicates whether rotational values are in degrees (yes) or radians (no).

endheader
time	pelvis_tilt	pelvis_list	pelvis_rotation	pelvis_tx	pelvis_ty	pelvis_tz	hip_flexion_r	hip_adduction_r	hip_rotation_r	knee_angle_r	ankle_angle_r	subtalar_angle_r	mtp_angle_r	hip_flexion_l	hip_adduction_l	hip_rotation_l	knee_angle_l	ankle_angle_l	subtalar_angle_l	mtp_angle_l	lumbar_extension	lumbar_bending	lumbar_rotation	arm_flex_r	arm_add_r	arm_rot_r	elbow_flex_r	pro_sup_r	arm_flex_l	arm_add_l	arm_rot_l	elbow_flex_l	pro_sup_l
      4.95000000	    -12.04171158	      0.40606079	      4.11776281	      0.79675951	      0.91324150	      0.02172784	     10.59427285	     -1.92985961	      0.99890515	      6.53879769	      5.67760550	     -4.54094832	      0.00000000	     16.65099243	     -5.92079510	      5.41157424	     11.20381460	      7.12684424	      1.41690668	      0.00000000	     -9.90348841	      2.92412385	     -4.54977773	      9.30927400	     -4.81837944	     12.53355333	     36.07841567	     99.36902973	     17.05053081	    -16.98805113	    -16.27411629	     24.16358934	     60.37358833
      4.96666670	    -11.51504671	      0.70773321	      3.82410646	      0.79712451	      0.91490966	      0.02262690	      9.27032392	     -2.04981691	      0.85072460	      5.13075271	      5.22912676	     -3.72096925	      0.00000000	     15.17749105	     -5.86655696	      4.92070458	      9.63234163	      6.90249003	      1.46980830	      0.00000000	     -9.64067128	      2.35928606	     -3.58248013	      9.46455826	     -4.70874642	     13.59426630	     35.03610116	     99.62356739	     17.84795864	    -15.98687936	    -16.93007909	     24.52877292	     60.68831222
      4.98333330	    -11.39368642	      0.93404376	      3.42984174	      0.78877440	      0.91994309	      0.02718126	      8.81640407	     -2.09519594	      1.03832299	      4.04692938	      4.78931792	     -3.38386938	      0.00000000	     14.86595285	     -5.85721247	      4.62447860	      9.03692305	      6.56987709	      1.38822424	      0.00000000	     -9.48936664	      1.92760022	     -2.94202747	     10.26508608	     -4.52377048	     15.04005773	     34.67347732	     99.92300564	     18.74248532	    -15.21890027	    -17.44245470	     25.02563784	     61.15953739
      5.00000000	    -11.34493430	      1.04931015	      3.39273774	      0.79092673	      0.91873634	      0.02815469	      8.31260975	     -2.10002161	      1.18876264	      2.92859437	      4.24094339	     -3.13165104	      0.00000000	     14.71244609	     -5.90841773	      4.44749627	      8.59461669	      6.44984161	      1.38544872	      0.00000000	     -8.96234383	      1.71062519	     -2.87364595	     10.54139195	     -4.09157259	     15.45018727	     34.82276712	     99.99366413	     19.01697005	    -14.54312515	    -17.33224866	     25.38263975	     61.28441926
      5.01666670	    -11.07122731	      1.17303986	      3.21256490	      0.79391085	      0.91035693	      0.02625235	      7.81008571	     -2.10884410	      1.51622416	      2.39743568	      4.21320194	     -3.59379848	      0.00000000	     14.34614038	     -5.87843225	      4.04444226	      8.51272331	      6.79059691	      1.43889902	      0.00000000	     -8.95933981	      1.48997693	     -2.28777631	     10.59049973	     -4.56462266	     17.95786429	     36.31977721	    100.46193663	     18.61624830	    -13.60094678	    -16.05122209	     27.87350416	     62.32010499
      5.03333330	    -10.82955634	      1.26581469	      3.06176825	      0.79272615	      0.92007277	      0.03081191	      7.29601928	     -2.07881736	      1.96865485	      1.82077390	      4.37982078	     -3.30817271	      0.00000000	     14.33203107	     -5.91590296	      3.77057700	      8.83382160	      7.02111723	      1.10503592	      0.00000000	     -8.73877727	      1.27464684	     -1.72800985	     10.86023087	     -4.36231025	     18.73272135	     36.11357931	    100.58861901	     18.88191119	    -12.38164362	    -15.03172838	     29.05786184	     62.71060815
